<mxfile host="app.diagrams.net" agent="Mozilla/5.0 (Windows NT 10.0; Win64; x64) AppleWebKit/537.36 (KHTML, like Gecko) Chrome/138.0.0.0 Safari/537.36" version="28.0.7">
  <diagram name="Page-1" id="H5BcJZx_xGzZoZWlVKdf">
    <mxGraphModel dx="1042" dy="562" grid="1" gridSize="10" guides="1" tooltips="1" connect="1" arrows="1" fold="1" page="1" pageScale="1" pageWidth="850" pageHeight="1100" math="0" shadow="0">
      <root>
        <mxCell id="0" />
        <mxCell id="1" parent="0" />
        <mxCell id="nl2D2xgzlOndQHWf-n2I-10" style="edgeStyle=orthogonalEdgeStyle;rounded=0;orthogonalLoop=1;jettySize=auto;html=1;exitX=0.5;exitY=1;exitDx=0;exitDy=0;entryX=0.5;entryY=0;entryDx=0;entryDy=0;" edge="1" parent="1" source="nl2D2xgzlOndQHWf-n2I-1" target="nl2D2xgzlOndQHWf-n2I-2">
          <mxGeometry relative="1" as="geometry" />
        </mxCell>
        <mxCell id="nl2D2xgzlOndQHWf-n2I-1" value="&#xa;Plan&#xa;&#xa;" style="ellipse;whiteSpace=wrap;html=1;" vertex="1" parent="1">
          <mxGeometry x="330" y="50" width="110" height="60" as="geometry" />
        </mxCell>
        <mxCell id="nl2D2xgzlOndQHWf-n2I-11" style="edgeStyle=orthogonalEdgeStyle;rounded=0;orthogonalLoop=1;jettySize=auto;html=1;exitX=0.5;exitY=1;exitDx=0;exitDy=0;" edge="1" parent="1" source="nl2D2xgzlOndQHWf-n2I-2" target="nl2D2xgzlOndQHWf-n2I-4">
          <mxGeometry relative="1" as="geometry" />
        </mxCell>
        <mxCell id="nl2D2xgzlOndQHWf-n2I-2" value="&#xa;Develop&#xa;&#xa;" style="ellipse;whiteSpace=wrap;html=1;" vertex="1" parent="1">
          <mxGeometry x="330" y="150" width="110" height="60" as="geometry" />
        </mxCell>
        <mxCell id="nl2D2xgzlOndQHWf-n2I-12" style="edgeStyle=orthogonalEdgeStyle;rounded=0;orthogonalLoop=1;jettySize=auto;html=1;exitX=0.5;exitY=1;exitDx=0;exitDy=0;entryX=0.5;entryY=0;entryDx=0;entryDy=0;" edge="1" parent="1" source="nl2D2xgzlOndQHWf-n2I-4" target="nl2D2xgzlOndQHWf-n2I-7">
          <mxGeometry relative="1" as="geometry" />
        </mxCell>
        <mxCell id="nl2D2xgzlOndQHWf-n2I-4" value="&#xa;Build&#xa;&#xa;" style="ellipse;whiteSpace=wrap;html=1;" vertex="1" parent="1">
          <mxGeometry x="330" y="250" width="110" height="60" as="geometry" />
        </mxCell>
        <mxCell id="nl2D2xgzlOndQHWf-n2I-15" style="edgeStyle=orthogonalEdgeStyle;rounded=0;orthogonalLoop=1;jettySize=auto;html=1;exitX=0.5;exitY=1;exitDx=0;exitDy=0;entryX=0.5;entryY=0;entryDx=0;entryDy=0;" edge="1" parent="1" source="nl2D2xgzlOndQHWf-n2I-5" target="nl2D2xgzlOndQHWf-n2I-8">
          <mxGeometry relative="1" as="geometry" />
        </mxCell>
        <mxCell id="nl2D2xgzlOndQHWf-n2I-5" value="&#xa; Deploy&#xa;&#xa;" style="ellipse;whiteSpace=wrap;html=1;" vertex="1" parent="1">
          <mxGeometry x="325" y="540" width="120" height="70" as="geometry" />
        </mxCell>
        <mxCell id="nl2D2xgzlOndQHWf-n2I-14" style="edgeStyle=orthogonalEdgeStyle;rounded=0;orthogonalLoop=1;jettySize=auto;html=1;exitX=0.5;exitY=1;exitDx=0;exitDy=0;entryX=0.5;entryY=0;entryDx=0;entryDy=0;" edge="1" parent="1" source="nl2D2xgzlOndQHWf-n2I-6" target="nl2D2xgzlOndQHWf-n2I-5">
          <mxGeometry relative="1" as="geometry" />
        </mxCell>
        <mxCell id="nl2D2xgzlOndQHWf-n2I-6" value="&#xa; Release&#xa;&#xa;" style="ellipse;whiteSpace=wrap;html=1;" vertex="1" parent="1">
          <mxGeometry x="325" y="440" width="120" height="60" as="geometry" />
        </mxCell>
        <mxCell id="nl2D2xgzlOndQHWf-n2I-13" style="edgeStyle=orthogonalEdgeStyle;rounded=0;orthogonalLoop=1;jettySize=auto;html=1;exitX=0.5;exitY=1;exitDx=0;exitDy=0;entryX=0.5;entryY=0;entryDx=0;entryDy=0;" edge="1" parent="1" source="nl2D2xgzlOndQHWf-n2I-7" target="nl2D2xgzlOndQHWf-n2I-6">
          <mxGeometry relative="1" as="geometry" />
        </mxCell>
        <mxCell id="nl2D2xgzlOndQHWf-n2I-7" value="&#xa;Test&#xa;&#xa;" style="ellipse;whiteSpace=wrap;html=1;" vertex="1" parent="1">
          <mxGeometry x="325" y="350" width="120" height="50" as="geometry" />
        </mxCell>
        <mxCell id="nl2D2xgzlOndQHWf-n2I-17" style="edgeStyle=orthogonalEdgeStyle;rounded=0;orthogonalLoop=1;jettySize=auto;html=1;exitX=0.5;exitY=1;exitDx=0;exitDy=0;" edge="1" parent="1" source="nl2D2xgzlOndQHWf-n2I-8" target="nl2D2xgzlOndQHWf-n2I-16">
          <mxGeometry relative="1" as="geometry" />
        </mxCell>
        <mxCell id="nl2D2xgzlOndQHWf-n2I-8" value="&lt;br&gt;Operate&amp;nbsp;&lt;div&gt;&lt;br/&gt;&lt;/div&gt;" style="ellipse;whiteSpace=wrap;html=1;" vertex="1" parent="1">
          <mxGeometry x="325" y="640" width="120" height="70" as="geometry" />
        </mxCell>
        <mxCell id="nl2D2xgzlOndQHWf-n2I-16" value="Monitor" style="ellipse;whiteSpace=wrap;html=1;" vertex="1" parent="1">
          <mxGeometry x="325" y="750" width="120" height="60" as="geometry" />
        </mxCell>
      </root>
    </mxGraphModel>
  </diagram>
</mxfile>
